<svg xmlns="http://www.w3.org/2000/svg" viewBox="0 0 168.92 108.76"><defs><style>.cls-1{fill:#f5f5f5;}</style></defs><g id="Слой_2" data-name="Слой 2"><g id="Слой_2-2" data-name="Слой 2"><path class="cls-1" d="M51.5,81.46h-.93l.26-.9c.62-2.06,3.32-6,6.18-10.06L58.09,69a24.46,24.46,0,0,1,9-5.44l7.35-2.41L96.15,47l7.14-14.29L116,6.27h0l0,0a2.43,2.43,0,0,0-2.13-4L71.94,7.49a26.25,26.25,0,0,0-8.62,4c-4.29,3.16-8.9,7.7-14.46,14.25C48.15,26.63,30.92,48.83,30,50c-.58.68-5,3.37-12.2,7.73-4.09,2.47-8,4.8-8.72,5.39a8.34,8.34,0,0,0-3,3.92l0,.08a1.83,1.83,0,0,0,.67,2.14,2.66,2.66,0,0,1,1,1.21,37.66,37.66,0,0,1,.87,5.15c.55,4.69.14,5-.23,5.21-.83.54-3.47.15-4.43-.11s-1.34-.51-1.54-.91c-.12-.23-.47-.93,1.78-10.8a1.77,1.77,0,0,0,0-.22,5.39,5.39,0,0,1,.59-2.24A9.69,9.69,0,0,1,8.19,62C9,61.35,12.74,59.1,17,56.5c4.76-2.88,11.29-6.82,11.87-7.44.93-1.11,18.7-24,18.88-24.23,5.65-6.65,10.33-11.26,14.74-14.51a27.51,27.51,0,0,1,9.16-4.19h0L120.17,0a1.36,1.36,0,0,1,1.46.92,1.39,1.39,0,0,1-.31,1.36L117.15,7,104.54,33.32,97.22,48,80.31,59a1.54,1.54,0,0,0,.41,2.78,3.61,3.61,0,0,1,2.54,1.67c1,1.91-.84,4.57-4.44,9.87-.74,1.1-1.56,2.3-2.44,3.63l-.26.42c-.48.84-.72,1-3.19,1.87a49.8,49.8,0,0,1-13.42,2.27ZM56.28,74a3.88,3.88,0,0,0,3.2,6.07h0a48.43,48.43,0,0,0,13-2.18c2.19-.79,2.21-.83,2.46-1.26.08-.14.17-.3.3-.5.88-1.33,1.71-2.54,2.45-3.64,3-4.38,2.77-6.67,2.17-7.85s-1.76-2-5-2.18l-7.28,2.39a23.21,23.21,0,0,0-8.42,5.06l-1,1.38ZM3.65,79.13a5.14,5.14,0,0,0,1.45.38,2,2,0,0,0,2.27-2.1,45.47,45.47,0,0,0-1-6.49.34.34,0,0,0-.06-.12.7.7,0,0,0-1.24.27A69.48,69.48,0,0,0,3.65,79.13Z"/><path class="cls-1" d="M7.87,64.93l5.76-1.48c5-1.31,4.85-1.47,9.09-1.51,3.83-.2,10.71,0,17.37.2,8.68.26,17.93-.32,20-1a21.32,21.32,0,0,0,4.55-1.85c1.7-1,4.54-2.47,9.13-4.68a64.34,64.34,0,0,1,8.39-3.53c1-.38,1.21-.39,2.33-.75l5.11-1c-1,.39-2.76,1.49-3.79,1.87a118.54,118.54,0,0,0-11.43,4.66,60.76,60.76,0,0,0-8.66,5,18.49,18.49,0,0,1-4.58,2.5c-2.28.8-11.4.53-21.07.24-6.62-.2-13.47-.4-17.28-.2A121.39,121.39,0,0,0,7.87,64.93Z"/><path class="cls-1" d="M47.13,81.56a3.48,3.48,0,0,1-2.47,1.09h-.09c-.52,0-4.15-.05-8.34-.08-15-.1-23.26-.2-24.14-.44-1.49-.4-2.15-3.25-2.41-4.91-.42-2.61-.59-7.38,1.4-8.69h0C13,67.3,47.4,65.69,54.24,69c.73.37.84,1.2.33,2.46a32.31,32.31,0,0,1-4.74,7C48.5,80,47.68,81,47.13,81.56Zm-2.33-.27Zm-33-11.59c-.95.66-1.31,4-.79,7.3.43,2.67,1.15,3.72,1.41,3.79,1.05.24,15.29.34,23.79.39,2.53,0,4.24,0,5.44.07a8.42,8.42,0,0,0,6.57-3c1-1.16,2.08-2.58,3.2-4.2,1.66-2.4,2-3.57,2-3.93C46.81,67.16,14,68.75,11.83,69.7Z"/><text/><path class="cls-1" d="M2.88,82.79a7.64,7.64,0,0,0-1.31,2.06c-.3.57-.21,3,.07,4.6A25.37,25.37,0,0,0,6.39,98.8c2,2.22,2.73,2.67,6.29,4.7a34.13,34.13,0,0,0,4.18.62c4.82.75,12.87,2,14.88,2.06.46,0,1.27.08,2.5.18a270.45,270.45,0,0,0,36.58.7,15.71,15.71,0,0,0,13.67-9.45l.07-.17c2.88-6.65,5.21-11.09,6.92-13.2A22.79,22.79,0,0,1,97.28,79l0,0c3-1.55,6.09-1.29,9.42.79,4.17,2.33,5.82,8.76,6.31,14.76a9.48,9.48,0,0,0,11,8.52l44.85-7.47L158.13,98.8l-47,7.82.21-1c1-4.52,1.16-21-5.3-24.64-2.91-1.82-5.54-2.06-8.06-.77a21.82,21.82,0,0,0-5.43,4.91c-3.49,4.29-9.07,18.44-10.27,21.55l-.31.7-.52.37c-8.89.76-16.94,1-23.85,1-11.19,0-19.41-.68-23.47-1-1.17-.09-2-.16-2.44-.18-2.08-.06-9.88-1.27-15-2.06-2.06-.32-3.69-.58-4.13-.63a14.84,14.84,0,0,1-7.69-3.37C2,99,.35,90.07.28,89.7c-.15-.85-.58-4.26.07-5.5A3.16,3.16,0,0,1,3,82.6"/><path class="cls-1" d="M99.65,57.14c-.41.12-1.4.31-1.36,0a10.58,10.58,0,0,1,.56-2.34L115.07,19.3l.08-.08c.68-.77,1.78-1.11,3.67-1.13h8.74c3.31-.18,2.77.71,2.65,3.41L131,43.57c.17,2.4-.62,4-2.37,4.84l-.1,0-7.15,2-8.66,2.18-11,3.67A16,16,0,0,1,99.65,57.14Zm2.19-4.36h0a1.24,1.24,0,0,0,1.59,1.51l8.9-3L121,49.14l7.08-2c.75-.35,1.69-1.11,1.51-3.48l-.75-22.12c0-2-.84-2-1.29-2.05h-8.71c-1.7,0-2.29.33-2.58.61"/><path class="cls-1" d="M45.21,71.78c-15.83.26-35.19-.18-35,1.44l.22-2.85C14,71.69,35,71.19,50,71.32Z"/><path class="cls-1" d="M43.16,75.3c-14.77.33-34.27-.44-32.73,1.37V74.1c1,1.19,23.42.5,37.85.53Z"/><path class="cls-1" d="M39.85,78.5c-13.79.44-29.24.24-29.42,1.34V77.18c.77,1.61,21.75.63,35.39.58Z"/><path class="cls-1" d="M112.29,95.59,111,89c-.74,4.51,30.48-1.87,53.47-5.45l-9.08,2.11C135.23,90.37,111.88,91.17,112.29,95.59Z"/><text/></g></g></svg>